<?xml version="1.0" encoding="utf-8"?>
<!-- Generator: Adobe Illustrator 16.0.0, SVG Export Plug-In . SVG Version: 6.00 Build 0)  -->
<!DOCTYPE svg PUBLIC "-//W3C//DTD SVG 1.1//EN" "http://www.w3.org/Graphics/SVG/1.1/DTD/svg11.dtd">
<svg version="1.1" id="Layer_1" xmlns="http://www.w3.org/2000/svg" xmlns:xlink="http://www.w3.org/1999/xlink" x="0px" y="0px"
	 width="69.098px" height="62.488px" viewBox="0 0 69.098 62.488" enable-background="new 0 0 69.098 62.488" xml:space="preserve">
<g>
	<path fill="#38757B" d="M6.959,38.404c0-23.281,18.96-30.721,22.081-30.721c0.72,0,3.6,4.56,3.36,4.56
		c-8.16,2.64-14.88,7.68-15.84,17.76c0,0,1.2-0.72,3.12-0.72c9.6,0,12,6.48,12,13.201c0,6.48-2.4,12.96-12,12.96
		C7.679,55.444,6.959,43.444,6.959,38.404z M36.479,38.404c0-23.281,18.96-30.721,22.081-30.721c0.72,0,3.6,4.56,3.36,4.56
		c-8.16,2.64-14.88,7.68-15.84,17.76c0,0,1.44-0.72,3.12-0.72c9.6,0,12,6.48,12,13.201c0,6.48-2.4,12.96-12,12.96
		C37.2,55.444,36.479,43.444,36.479,38.404z"/>
</g>
</svg>
