<?xml version="1.0" encoding="utf-8"?>
<!-- Generator: Adobe Illustrator 21.0.0, SVG Export Plug-In . SVG Version: 6.00 Build 0)  -->
<!DOCTYPE svg PUBLIC "-//W3C//DTD SVG 1.1//EN" "http://www.w3.org/Graphics/SVG/1.1/DTD/svg11.dtd">
<svg version="1.1" id="Layer_1" xmlns="http://www.w3.org/2000/svg" xmlns:xlink="http://www.w3.org/1999/xlink" x="0px" y="0px"
	 viewBox="0 0 355 44" style="enable-background:new 0 0 355 44;" xml:space="preserve">
<style type="text/css">
	.st0{fill-rule:evenodd;clip-rule:evenodd;}
	.st1{fill-rule:evenodd;clip-rule:evenodd;fill:#FFFFFF;}
	.st2{fill-rule:evenodd;clip-rule:evenodd;fill:#FFFFFF;stroke:#000000;stroke-width:0.468;stroke-miterlimit:3.8637;}
	.st3{fill-rule:evenodd;clip-rule:evenodd;fill:#BA093E;}
	.st4{fill:none;stroke:#FFFFFF;stroke-width:0.3435;stroke-miterlimit:3.8637;}
	.st5{fill:none;stroke:#000000;stroke-width:0.3435;stroke-miterlimit:3.8637;}
	.st6{fill-rule:evenodd;clip-rule:evenodd;fill:none;stroke:#000000;stroke-width:0.468;stroke-miterlimit:3.8637;}
	.st7{fill-rule:evenodd;clip-rule:evenodd;fill:#FFFFFF;stroke:#000000;stroke-width:0.432;stroke-miterlimit:3.8637;}
</style>
<g>
	<g>
		<path d="M56,22.8v-8.3h-5.3v8.3H47V4.3h3.7v7.2H56V4.3h3.8v18.5H56z"/>
		<path d="M74.5,22.8l-1.3-4.4h-5.4l-1.3,4.4h-3.9l6.1-18.6h4l5.8,18.6H74.5z M71.3,11.6c-0.2-0.9-0.7-3.3-0.7-3.3s-0.5,2.2-0.9,3.6
			c-0.3,1.3-0.6,2.2-1,3.4h3.6C72.3,15.3,71.7,13.4,71.3,11.6z"/>
		<path d="M90.3,22.8c-0.7-1.2-1-1.7-1.7-3c-1.8-3.3-2.4-4.2-3.1-4.5c-0.2-0.1-0.3-0.1-0.6-0.2v7.7h-3.7V4.3h6.9
			c3.3,0,5.4,2.2,5.4,5.4c0,2.8-1.8,5.1-4.1,5.1c0.4,0.3,0.5,0.5,0.8,0.8c1.1,1.3,4.5,7.2,4.5,7.2H90.3z M88.3,7.5
			c-0.4-0.2-1.2-0.3-2.1-0.3h-1.3v5h1.3c1.6,0,2.3-0.2,2.8-0.6c0.5-0.4,0.7-1.1,0.7-1.9C89.6,8.6,89.2,7.8,88.3,7.5z"/>
		<path d="M105.1,22.9h-3.4L95.5,4.3h4.1l3.1,9.7c0.3,0.8,0.6,1.9,0.9,3.2c0.2-1.1,0.7-2.7,1.1-3.7l3.1-9.2h3.9L105.1,22.9z"/>
		<path d="M122.7,22.8l-1.3-4.4h-5.4l-1.3,4.4h-3.9l6.1-18.6h4l5.8,18.6H122.7z M119.4,11.6c-0.2-0.9-0.7-3.3-0.7-3.3
			s-0.5,2.2-0.9,3.6c-0.3,1.3-0.6,2.2-1,3.4h3.6C120.4,15.3,119.8,13.4,119.4,11.6z"/>
		<path d="M138.4,22.8c-0.7-1.2-1-1.7-1.7-3c-1.8-3.3-2.4-4.2-3.1-4.5c-0.2-0.1-0.3-0.1-0.6-0.2v7.7h-3.7V4.3h6.9
			c3.3,0,5.4,2.2,5.4,5.4c0,2.8-1.8,5.1-4.1,5.1c0.4,0.3,0.5,0.5,0.8,0.8c1.1,1.3,4.5,7.2,4.5,7.2H138.4z M136.5,7.5
			c-0.4-0.2-1.2-0.3-2.1-0.3H133v5h1.3c1.6,0,2.3-0.2,2.8-0.6c0.5-0.4,0.7-1.1,0.7-1.9C137.8,8.6,137.3,7.8,136.5,7.5z"/>
		<path d="M157.7,20c-1.1,1.5-2.8,2.5-4.5,2.7c-0.7,0.1-1.6,0.1-2.7,0.1H146V4.3h3.7c1.1,0,2.5,0.1,3.2,0.1c1.6,0.1,2.9,0.7,4.1,1.8
			c1.7,1.7,2.5,4.1,2.5,7.4C159.6,16.1,159,18.4,157.7,20z M154.4,8.8c-0.6-1-1.5-1.5-2.9-1.5h-1.7v12.6h2c2.5,0,3.6-1.9,3.6-5.8
			C155.4,11.8,155.2,10,154.4,8.8z"/>
		<path d="M165.7,22.8V3.1h3.3v19.7H165.7z M175.6,22.8L169,12.3l6.4-9.2h4l-6.8,9.1l7.3,10.6H175.6z"/>
		<path d="M183.9,16.5v0.2c0,2,0.7,4.1,3.6,4.1c1.3,0,2.5-0.5,3.6-1.4l1.2,1.9c-1.5,1.3-3.2,1.9-5.2,1.9c-4.1,0-6.6-2.9-6.6-7.5
			c0-2.5,0.5-4.2,1.8-5.6c1.2-1.3,2.6-1.9,4.4-1.9c1.4,0,2.7,0.4,4,1.5c1.3,1.1,1.9,2.9,1.9,6.3v0.7H183.9z M186.7,10.4
			c-1.8,0-2.7,1.4-2.7,3.7h5.3C189.3,11.8,188.2,10.4,186.7,10.4z"/>
		<path d="M203.8,22.8v-9.6c0-2-0.5-2.5-1.7-2.5c-0.9,0-2.2,0.7-3.2,1.6v10.4h-3.1V12.2c0-1.5-0.1-2.4-0.5-3.4l2.8-0.8
			c0.3,0.7,0.5,1.3,0.5,2c1.5-1.3,2.9-2,4.4-2c2.2,0,3.8,1.3,3.8,4v10.8H203.8z"/>
		<path d="M219.3,22.8v-9.6c0-2-0.5-2.5-1.7-2.5c-0.9,0-2.2,0.7-3.2,1.6v10.4h-3.1V12.2c0-1.5-0.1-2.4-0.5-3.4l2.8-0.8
			c0.3,0.7,0.5,1.3,0.5,2c1.5-1.3,2.9-2,4.4-2c2.2,0,3.8,1.3,3.8,4v10.8H219.3z"/>
		<path d="M229.6,16.5v0.2c0,2,0.7,4.1,3.6,4.1c1.3,0,2.5-0.5,3.6-1.4l1.2,1.9c-1.5,1.3-3.2,1.9-5.2,1.9c-4.1,0-6.6-2.9-6.6-7.5
			c0-2.5,0.5-4.2,1.8-5.6c1.2-1.3,2.6-1.9,4.4-1.9c1.4,0,2.7,0.4,4,1.5c1.2,1.1,1.9,2.9,1.9,6.3v0.7H229.6z M232.3,10.4
			c-1.8,0-2.7,1.4-2.7,3.7h5.3C234.9,11.8,233.9,10.4,232.3,10.4z"/>
		<path d="M250.4,22.8c-0.1-0.3-0.2-0.5-0.3-1.1c-1,1-2.1,1.4-3.5,1.4c-3.7,0-5.9-2.9-5.9-7.4c0-4.5,2.5-7.6,6-7.6
			c1.2,0,2.2,0.4,3.1,1.3c0,0-0.1-1.1-0.1-2.4V1.8l3.1,0.5v15.5c0,2.8,0.2,4.3,0.5,5H250.4z M249.7,11.8c-0.7-0.8-1.6-1.2-2.6-1.2
			c-2,0-2.9,1.6-2.9,5.1c0,3.2,0.6,4.8,3,4.8c1.2,0,2.1-0.7,2.5-1.4V11.8z"/>
		<path d="M263.6,23.1c-1.2,3.5-2.2,5.2-5.6,5.8l-1-2c2-0.5,3.1-1.4,3.9-4.1h-1c-0.4-1.6-0.9-3.2-1.4-4.5l-3.3-9.7l3.2-0.5l2.6,8.8
			c0.2,0.9,0.7,3,0.8,3.2c0-0.1,0.5-2.2,1.1-3.9l2.4-7.8h3.4L263.6,23.1z"/>
		<path d="M279.3,23.2c-2.2,0-4.5-0.6-6.5-1.8l1.2-2.5c1.8,1,3.3,1.6,5.3,1.6c2.4,0,3.9-1.2,3.9-3.1c0-1.5-0.9-2.4-2.9-2.9l-2.1-0.6
			c-1.8-0.5-3.1-1.3-3.8-2.4c-0.5-0.8-0.8-1.7-0.8-2.9c0-3.5,2.7-5.8,6.7-5.8c2.2,0,4.5,0.7,6.2,1.9L285,7c-1.8-1.1-3.1-1.5-4.6-1.5
			c-1.9,0-3.2,1.1-3.2,2.7c0,1.2,0.7,1.8,2.6,2.4l2.3,0.7c2.8,0.8,4.8,2.6,4.8,5.6C286.9,20.1,284.3,23.2,279.3,23.2z"/>
		<path d="M295.6,23.2c-3.9,0-6.1-2.8-6.1-7.4c0-5.2,3.1-7.7,6.3-7.7c1.6,0,2.7,0.4,4,1.6l-1.6,2.1c-0.9-0.8-1.6-1.1-2.4-1.1
			c-1,0-1.8,0.5-2.3,1.5c-0.4,0.9-0.6,2.2-0.6,4c0,2,0.3,3.2,1,3.9c0.5,0.5,1.1,0.8,1.9,0.8c1,0,2-0.5,2.9-1.4l1.5,1.9
			C298.9,22.6,297.5,23.2,295.6,23.2z"/>
		<path d="M311.1,22.8V13c0-1.8-0.6-2.3-1.8-2.3c-1.1,0-2.4,0.7-3.5,1.8v10.3h-3.2V5.7c0-1.3-0.1-2.4-0.3-3.1l3.2-0.7
			c0.2,0.8,0.3,2,0.3,3.4v3.1c0,0.9-0.1,1.6-0.1,1.6c1.4-1.3,2.9-1.9,4.4-1.9c1.7,0,3,0.8,3.5,1.8c0.4,0.7,0.5,1.4,0.5,2.8v10.2
			H311.1z"/>
		<path d="M324,23.2c-3.9,0-6.3-2.9-6.3-7.5c0-4.6,2.5-7.6,6.3-7.6c4.1,0,6.4,3,6.4,7.6C330.4,20.3,327.9,23.2,324,23.2z M324,10.4
			c-2,0-2.8,1.5-2.8,5c0,4.2,1.1,5.4,2.9,5.4c1.8,0,2.9-1.5,2.9-5.1C327,11.7,325.8,10.4,324,10.4z"/>
		<path d="M339.3,23.2c-3.9,0-6.3-2.9-6.3-7.5c0-4.6,2.5-7.6,6.3-7.6c4.1,0,6.4,3,6.4,7.6C345.7,20.3,343.2,23.2,339.3,23.2z
			 M339.3,10.4c-2,0-2.8,1.5-2.8,5c0,4.2,1.1,5.4,2.9,5.4c1.8,0,2.9-1.5,2.9-5.1C342.2,11.7,341.1,10.4,339.3,10.4z"/>
		<path d="M352.2,23.1c-3.2,0-3.2-2.8-3.2-4.1V6.8c0-2-0.1-3-0.3-4.2l3.2-0.7c0.2,0.9,0.3,2.1,0.3,4V18c0,1.9,0.1,2.2,0.3,2.6
			c0.2,0.3,0.7,0.4,1,0.2l0.5,1.9C353.6,23,353,23.1,352.2,23.1z"/>
		<path d="M49.5,41.5c-0.2,1-1.1,1.6-1.9,1.9l-0.8-0.8c0.4-0.3,0.8-0.6,0.9-1C48,41.3,48,41,48,40.1v-6.6h1.6v6.5
			C49.6,41,49.6,41.2,49.5,41.5z"/>
		<path d="M57.7,41.2c-0.5,0.3-0.9,0.4-1.6,0.4c-1.2,0-2-0.3-2.6-1.1c-0.6-0.8-0.9-1.8-0.9-3c0-1.7,0.7-3.1,1.8-3.8
			c0.5-0.3,1.1-0.4,1.7-0.4c2.1,0,3.5,1.6,3.5,4.1C59.5,39.2,58.8,40.6,57.7,41.2z M57.4,35.6c-0.1-0.4-0.6-1-1.4-1
			c-0.5,0-1,0.3-1.2,0.7c-0.3,0.5-0.4,1.2-0.4,2.2c0,1.4,0.2,2.3,0.7,2.6c0.3,0.2,0.6,0.3,1,0.3c1.1,0,1.6-0.9,1.6-2.9
			C57.6,36.6,57.5,36.1,57.4,35.6z"/>
		<path d="M66.3,41.5v-3.6H64v3.6h-1.6v-8H64v3.1h2.3v-3.1h1.6v8H66.3z"/>
		<path d="M75,41.5l-1.4-3.1c-0.5-1-0.9-2.1-1.1-2.6c0.1,0.7,0.1,1.6,0.1,2.3l0,3.4h-1.6v-8h1.8l1.5,3.2c0.4,0.9,0.7,1.7,0.9,2.3
			c-0.1-0.6-0.1-1.7-0.1-2.2l0-3.3h1.5v8H75z"/>
		<path d="M86.2,34.8h-2.6v1.8h2v1.3h-2v3.6H82v-8h4.4L86.2,34.8z"/>
		<path d="M88.1,41.7c-0.6,0-1-0.5-1-1c0-0.6,0.5-1,1-1c0.6,0,1,0.5,1,1C89.1,41.2,88.6,41.7,88.1,41.7z"/>
		<path d="M98,41.5l-2.4-4.2v4.2h-1.7v-8h1.7v3.7l2.3-3.7h2l-2.6,3.7l2.9,4.3H98z"/>
		<path d="M102.3,41.5v-8h4.6l-0.2,1.3H104v1.9h2.3v1.3H104v2.1h3v1.4H102.3z"/>
		<path d="M113.6,41.5l-1.4-3.1c-0.5-1-0.9-2.1-1.1-2.6c0.1,0.7,0.1,1.6,0.1,2.3l0,3.4h-1.6v-8h1.8l1.5,3.2c0.4,0.9,0.7,1.7,0.9,2.3
			c-0.1-0.6-0.1-1.7-0.1-2.2l0-3.3h1.5v8H113.6z"/>
		<path d="M122.4,41.5l-1.4-3.1c-0.5-1-0.9-2.1-1.1-2.6c0.1,0.7,0.1,1.6,0.1,2.3l0,3.4h-1.6v-8h1.8l1.5,3.2c0.4,0.9,0.7,1.7,0.9,2.3
			c-0.1-0.6-0.1-1.7-0.1-2.2l0-3.3h1.5v8H122.4z"/>
		<path d="M127.3,41.5v-8h4.6l-0.2,1.3h-2.7v1.9h2.3v1.3h-2.3v2.1h3v1.4H127.3z"/>
		<path d="M139.7,40.3c-0.5,0.7-1.2,1.1-2,1.2c-0.3,0-0.7,0-1.2,0h-2v-8h1.6c0.5,0,1.1,0,1.4,0c0.7,0.1,1.3,0.3,1.8,0.8
			c0.7,0.7,1.1,1.8,1.1,3.2C140.5,38.6,140.2,39.5,139.7,40.3z M138.3,35.4c-0.3-0.4-0.6-0.7-1.3-0.7h-0.7v5.4h0.9
			c1.1,0,1.5-0.8,1.5-2.5C138.7,36.7,138.6,35.9,138.3,35.4z"/>
		<path d="M146.3,38.2v3.3h-1.7v-3.3l-2.5-4.7h1.9l1,2.2c0.2,0.4,0.3,0.7,0.4,1c0.1-0.2,0.3-0.6,0.4-1l1-2.2h1.9L146.3,38.2z"/>
		<path d="M154.9,41.7c-0.9,0-1.9-0.3-2.7-0.7l0.6-1.3c0.8,0.4,1.4,0.6,2.2,0.6c0.9,0,1.4-0.4,1.4-1.1c0-0.5-0.3-0.8-1.1-1l-0.9-0.2
			c-0.8-0.2-1.3-0.5-1.6-1c-0.2-0.4-0.3-0.8-0.3-1.2c0-1.5,1.2-2.5,2.9-2.5c1,0,2,0.3,2.7,0.8l-0.8,1.2c-0.7-0.4-1.3-0.6-1.9-0.6
			c-0.7,0-1.1,0.4-1.1,0.9c0,0.4,0.2,0.6,0.9,0.8l1,0.3c1.3,0.4,2,1.2,2,2.4C158.2,40.6,156.9,41.7,154.9,41.7z"/>
		<path d="M164.2,41.6c-1.1,0-2-0.4-2.6-1.1c-0.6-0.7-1-1.7-1-2.9c0-1,0.2-1.8,0.5-2.5c0.6-1.2,1.8-1.9,3.1-1.9c0.8,0,1.6,0.3,2,0.6
			l-0.7,1.1c-0.4-0.3-0.8-0.5-1.3-0.5c-0.5,0-1.1,0.3-1.4,0.7c-0.3,0.5-0.5,1.1-0.5,2.1c0,1.1,0.1,1.7,0.3,2.1
			c0.3,0.6,0.9,0.9,1.5,0.9c0.5,0,0.9-0.1,1.4-0.5l0.7,1C165.8,41.4,165.2,41.6,164.2,41.6z"/>
		<path d="M173.1,41.5v-3.6h-2.3v3.6h-1.6v-8h1.6v3.1h2.3v-3.1h1.6v8H173.1z"/>
		<path d="M182.7,41.2c-0.5,0.3-0.9,0.4-1.6,0.4c-1.2,0-2-0.3-2.6-1.1c-0.6-0.8-0.9-1.8-0.9-3c0-1.7,0.7-3.1,1.8-3.8
			c0.5-0.3,1.1-0.4,1.7-0.4c2.1,0,3.5,1.6,3.5,4.1C184.5,39.2,183.9,40.6,182.7,41.2z M182.4,35.6c-0.1-0.4-0.6-1-1.4-1
			c-0.5,0-1,0.3-1.2,0.7c-0.3,0.5-0.4,1.2-0.4,2.2c0,1.4,0.2,2.3,0.7,2.6c0.3,0.2,0.6,0.3,1,0.3c1.1,0,1.6-0.9,1.6-2.9
			C182.7,36.6,182.6,36.1,182.4,35.6z"/>
		<path d="M192.2,41.2c-0.5,0.3-0.9,0.4-1.6,0.4c-1.2,0-2-0.3-2.6-1.1c-0.6-0.8-0.9-1.8-0.9-3c0-1.7,0.7-3.1,1.8-3.8
			c0.5-0.3,1.1-0.4,1.7-0.4c2.1,0,3.5,1.6,3.5,4.1C194,39.2,193.4,40.6,192.2,41.2z M191.9,35.6c-0.1-0.4-0.6-1-1.4-1
			c-0.5,0-1,0.3-1.2,0.7c-0.3,0.5-0.4,1.2-0.4,2.2c0,1.4,0.2,2.3,0.7,2.6c0.3,0.2,0.6,0.3,1,0.3c1.1,0,1.6-0.9,1.6-2.9
			C192.1,36.6,192.1,36.1,191.9,35.6z"/>
		<path d="M201.1,41.5h-4.2v-8h1.7v6.7h2.9L201.1,41.5z"/>
		<path d="M210.5,41.2c-0.5,0.3-0.9,0.4-1.6,0.4c-1.2,0-2-0.3-2.6-1.1c-0.6-0.8-0.9-1.8-0.9-3c0-1.7,0.7-3.1,1.8-3.8
			c0.5-0.3,1.1-0.4,1.7-0.4c2.1,0,3.5,1.6,3.5,4.1C212.3,39.2,211.6,40.6,210.5,41.2z M210.2,35.6c-0.1-0.4-0.6-1-1.4-1
			c-0.5,0-1,0.3-1.2,0.7c-0.3,0.5-0.4,1.2-0.4,2.2c0,1.4,0.2,2.3,0.7,2.6c0.3,0.2,0.6,0.3,1,0.3c1.1,0,1.6-0.9,1.6-2.9
			C210.4,36.6,210.3,36.1,210.2,35.6z"/>
		<path d="M219.3,34.8h-2.6v1.8h2v1.3h-2v3.6h-1.6v-8h4.4L219.3,34.8z"/>
		<path d="M227,41.6c-1.2,0-2.1-0.4-2.7-1.2c-0.6-0.8-0.9-1.6-0.9-2.8c0-1.7,0.6-2.9,1.7-3.6c0.6-0.4,1.2-0.6,2-0.6
			c1,0,1.8,0.3,2.6,0.9l-0.9,1c-0.5-0.4-1.1-0.6-1.7-0.6c-0.5,0-0.9,0.1-1.2,0.4c-0.5,0.5-0.7,1.4-0.7,2.6c0,1.1,0.2,1.9,0.6,2.3
			c0.3,0.3,0.7,0.5,1.3,0.5c0.4,0,0.6-0.1,0.9-0.2v-1.8h-1.2l-0.2-1.3h3.1v3.8C228.8,41.3,227.9,41.6,227,41.6z"/>
		<path d="M237.6,41.2c-0.5,0.3-0.9,0.4-1.6,0.4c-1.2,0-2-0.3-2.6-1.1c-0.6-0.8-0.9-1.8-0.9-3c0-1.7,0.7-3.1,1.8-3.8
			c0.5-0.3,1.1-0.4,1.7-0.4c2.1,0,3.5,1.6,3.5,4.1C239.4,39.2,238.7,40.6,237.6,41.2z M237.3,35.6c-0.1-0.4-0.6-1-1.4-1
			c-0.5,0-1,0.3-1.2,0.7c-0.3,0.5-0.4,1.2-0.4,2.2c0,1.4,0.2,2.3,0.7,2.6c0.3,0.2,0.6,0.3,1,0.3c1.1,0,1.6-0.9,1.6-2.9
			C237.5,36.6,237.4,36.1,237.3,35.6z"/>
		<path d="M245.2,41.5h-1.5l-2.7-8.1h1.8l1.3,4.2c0.1,0.4,0.2,0.8,0.4,1.4c0.1-0.5,0.3-1.2,0.5-1.6l1.4-4h1.7L245.2,41.5z"/>
		<path d="M250.2,41.5v-8h4.6l-0.2,1.3h-2.8v1.9h2.3v1.3h-2.3v2.1h3v1.4H250.2z"/>
		<path d="M261.4,41.5c-0.3-0.5-0.4-0.8-0.8-1.3c-0.8-1.4-1-1.8-1.3-2c-0.1,0-0.2-0.1-0.3-0.1v3.3h-1.6v-8h3c1.4,0,2.4,0.9,2.4,2.4
			c0,1.2-0.8,2.2-1.8,2.2c0.2,0.1,0.2,0.2,0.3,0.3c0.5,0.6,1.9,3.1,1.9,3.1H261.4z M260.6,34.9c-0.2-0.1-0.5-0.1-0.9-0.1h-0.6v2.2
			h0.5c0.7,0,1-0.1,1.2-0.3c0.2-0.2,0.3-0.5,0.3-0.8C261.1,35.3,261,35,260.6,34.9z"/>
		<path d="M269.8,41.5l-1.4-3.1c-0.5-1-0.9-2.1-1.1-2.6c0.1,0.7,0.1,1.6,0.1,2.3l0,3.4h-1.6v-8h1.8l1.5,3.2c0.4,0.9,0.7,1.7,0.9,2.3
			c-0.1-0.6-0.1-1.7-0.1-2.2l0-3.3h1.5v8H269.8z"/>
		<path d="M281.2,41.5l-0.3-4.3c0-0.5-0.1-0.9-0.1-1.3c-0.1,0.5-0.2,0.8-0.3,1.2l-1.3,4.4h-1.4l-1.1-4.2c-0.1-0.4-0.2-1-0.3-1.4
			c0,0.5,0,0.9-0.1,1.4l-0.3,4.2h-1.6l0.8-8h2.1l1.1,4c0.2,0.6,0.2,0.9,0.3,1.3c0.1-0.4,0.2-0.8,0.3-1.3l1.1-4h2.1l0.7,8H281.2z"/>
		<path d="M285.7,41.5v-8h4.6l-0.2,1.3h-2.7v1.9h2.3v1.3h-2.3v2.1h3v1.4H285.7z"/>
		<path d="M297,41.5l-1.4-3.1c-0.5-1-0.9-2.1-1.1-2.6c0.1,0.7,0.1,1.6,0.1,2.3l0,3.4h-1.6v-8h1.8l1.5,3.2c0.4,0.9,0.7,1.7,0.9,2.3
			c-0.1-0.6-0.1-1.7-0.1-2.2l0-3.3h1.5v8H297z"/>
		<path d="M306.7,34.8h-1.9v6.7h-1.6v-6.7h-2v-1.3h5.8L306.7,34.8z"/>
	</g>
	<g>
		<path class="st0" d="M18.5,42.3c0,0-14.2-7.4-17.2-23.3C0,12,0.4,0.9,0.4,0.9h36c0,0,0.4,11.1-0.9,18.1
			C32.5,34.9,18.5,42.3,18.5,42.3z"/>
		<path class="st1" d="M18.5,41.9c0,0-13.7-7.7-16.6-23.1C0.6,12,1,1.2,1,1.2h34.8c0,0,0.4,10.8-0.9,17.5
			C32.1,34.2,18.5,41.9,18.5,41.9z"/>
		<path class="st2" d="M18.5,41.8c0,0-13.7-7.7-16.6-23.1C0.6,11.9,1,1.1,1,1.1h34.8c0,0,0.4,10.8-0.9,17.5
			C32.1,34,18.5,41.8,18.5,41.8z"/>
		<g>
			<polygon class="st3" points="11.5,36.3 25.4,36.3 23.8,37.8 22.8,38.7 14.1,38.7 13,37.7 			"/>
			<polygon class="st3" points="7.7,31.9 29.1,31.9 28.2,33.2 27.5,34.1 9.5,34.1 8.6,33.1 			"/>
			<polygon class="st3" points="5.1,27.6 31.8,27.6 30.6,29.7 6.3,29.7 5.5,28.6 			"/>
			<polygon class="st3" points="1.9,18.7 2.1,19.9 2.4,20.8 34.6,20.8 34.8,19.7 35,18.7 			"/>
			<polygon class="st3" points="1,1.3 35.9,1.3 35.7,6.5 35.7,11.7 1.1,11.7 1,9.6 0.9,5.6 			"/>
			<polygon class="st3" points="3.1,23.1 3.8,25.3 32.9,25.3 33.8,23.1 			"/>
			<path class="st4" d="M20.2,5.2"/>
			<path class="st5" d="M18.5,41.9"/>
			<path class="st5" d="M20.2,5.2"/>
			<polygon class="st3" points="1.3,14.1 35.6,14.1 35.5,15.3 35.3,16.4 1.6,16.4 1.4,15 			"/>
		</g>
		<g>
			<path class="st6" d="M18.5,41.9c0,0-13.7-7.7-16.6-23.1C0.6,12,1,1.2,1,1.2h34.8c0,0,0.4,10.8-0.9,17.5
				C32.1,34.2,18.5,41.9,18.5,41.9z"/>
			<line class="st5" x1="1.1" y1="11.8" x2="35.6" y2="11.8"/>
			<line class="st5" x1="1.4" y1="16.4" x2="35.3" y2="16.4"/>
			<line class="st5" x1="35" y1="18.7" x2="1.7" y2="18.7"/>
			<line class="st5" x1="2.3" y1="20.8" x2="34.5" y2="20.8"/>
			<line class="st5" x1="33.8" y1="23" x2="3" y2="23"/>
			<line class="st5" x1="3.8" y1="25.3" x2="33" y2="25.3"/>
			<line class="st5" x1="31.9" y1="27.5" x2="5" y2="27.5"/>
			<line class="st5" x1="6.2" y1="29.7" x2="30.6" y2="29.7"/>
			<line class="st5" x1="35.5" y1="14.1" x2="1.3" y2="14.1"/>
			<line class="st5" x1="29.1" y1="31.9" x2="7.7" y2="31.9"/>
			<line class="st5" x1="9.4" y1="34.1" x2="27.5" y2="34.1"/>
			<line class="st5" x1="25.4" y1="36.3" x2="11.5" y2="36.3"/>
			<line class="st5" x1="13.9" y1="38.7" x2="22.9" y2="38.7"/>
			<path class="st4" d="M26.5,8.9"/>
			<path class="st5" d="M26.5,8.9"/>
			<path class="st4" d="M4.1,8.9"/>
			<path class="st5" d="M4,8.9"/>
			<path class="st5" d="M15.3,9"/>
			<path class="st5" d="M15.3,8.9"/>
			<path class="st4" d="M15.3,9"/>
			<path class="st4" d="M15.3,8.9"/>
		</g>
		<g>
			<line class="st5" x1="10" y1="8.9" x2="10.5" y2="9.6"/>
			<line class="st4" x1="4.2" y1="9" x2="3.6" y2="9.6"/>
			<g>
				<path class="st7" d="M2.8,3.9c0,0,0-0.5,0.2-0.7C3.2,3,3.7,3.1,3.7,3.1h2.8c0.2,0,0.3,0.2,0.5,0.2c0.3,0,0.3-0.2,0.5-0.2h3.3
					c0,0,0.4,0,0.5,0.1c0.2,0.3,0.2,0.6,0.2,0.6v0.6c0,0,1-0.1,1,0.4c0,0.5-1,0.5-1,0.5V8c0,0,1-0.1,1,0.5c0,0.6-1,0.5-1,0.5v0.5
					c0,0,0,0.4-0.1,0.6c-0.2,0.3-1,0.2-1,0.2H7.6H6.2H3.8c0,0-0.6,0.1-0.8-0.1C2.8,9.9,2.8,9.5,2.8,9.5V9c0,0-1.1,0.1-1.1-0.5
					C1.8,7.9,2.8,8,2.8,8V5.4c0,0-1,0.1-1.1-0.5c0-0.6,1.1-0.5,1.1-0.5V3.9z"/>
				<line class="st5" x1="7" y1="3.3" x2="7" y2="9.7"/>
				<circle class="st7" cx="7.1" cy="10.2" r="0.5"/>
				<g>
					<g>
						<line class="st5" x1="4.1" y1="9" x2="3.6" y2="9.6"/>
						<path class="st5" d="M4.1,3.1v5.1c0,0,0,0.6,0.1,0.8c0.2,0.3,0.7,0.1,0.7,0.1s0.9,0.1,1.5,0.2C6.7,9.4,7,9.7,7,9.7"/>
					</g>
					<path class="st5" d="M4.1,3.1c0,0-0.7,0.4-0.7,0.9c0,0.5,0,0.8,0,0.8V9c0,0,0,0.4,0.1,0.6c0.2,0.2,0.8,0.2,0.8,0.2
						s0.8-0.1,1.4,0c0.6,0.1,0.5,0.2,0.8,0.3"/>
				</g>
				<g>
					<path class="st5" d="M10,3.2c0,0,0.7,0.4,0.7,0.9c0,0.5,0,0.8,0,0.8V9c0,0,0,0.5-0.1,0.6c-0.2,0.2-0.8,0.2-0.8,0.2
						S9,9.7,8.4,9.8C7.8,9.9,7.9,10,7.6,10.1"/>
					<path class="st5" d="M10,3.2v5.1c0,0,0.1,0.6-0.1,0.8C9.7,9.3,9.2,9.2,9.2,9.2S8.3,9.3,7.7,9.4C7.4,9.4,7.1,9.7,7.1,9.7"/>
				</g>
			</g>
			<g>
				<path class="st7" d="M14,3.9c0,0,0-0.5,0.2-0.7c0.2-0.2,0.7-0.1,0.7-0.1h2.8c0.2,0,0.3,0.2,0.5,0.2c0.3,0,0.3-0.2,0.5-0.2H22
					c0,0,0.4,0,0.5,0.1c0.2,0.3,0.2,0.6,0.2,0.6v0.6c0,0,1-0.1,1,0.4c0,0.5-1,0.5-1,0.5V8c0,0,1-0.1,1,0.5c0,0.6-1,0.5-1,0.5v0.5
					c0,0,0,0.4-0.1,0.6c-0.2,0.3-1,0.2-1,0.2h-2.7h-1.4H15c0,0-0.6,0.1-0.8-0.1C14,9.9,14,9.5,14,9.5V9C14,9,13,9.1,13,8.5
					C13,7.9,14,8,14,8V5.4c0,0-1,0.1-1.1-0.5c0-0.6,1.1-0.5,1.1-0.5V3.9z"/>
				<line class="st5" x1="18.2" y1="3.3" x2="18.2" y2="9.7"/>
				<circle class="st7" cx="18.3" cy="10.2" r="0.5"/>
				<g>
					<g>
						<line class="st5" x1="15.3" y1="9" x2="14.8" y2="9.6"/>
						<path class="st5" d="M15.3,3.1v5.1c0,0,0,0.6,0.1,0.8c0.2,0.3,0.7,0.1,0.7,0.1s0.9,0.1,1.5,0.2c0.3,0,0.6,0.3,0.6,0.3"/>
					</g>
					<path class="st5" d="M15.3,3.1c0,0-0.7,0.4-0.7,0.9c0,0.5,0,0.8,0,0.8V9c0,0,0,0.4,0.1,0.6c0.2,0.2,0.8,0.2,0.8,0.2
						s0.8-0.1,1.4,0c0.6,0.1,0.5,0.2,0.8,0.3"/>
				</g>
				<g>
					<path class="st5" d="M21.2,3.2c0,0,0.7,0.4,0.7,0.9c0,0.5,0,0.8,0,0.8V9c0,0,0,0.5-0.1,0.6C21.6,9.9,21,9.8,21,9.8
						s-0.8-0.1-1.4,0c-0.6,0.1-0.5,0.2-0.8,0.3"/>
					<path class="st5" d="M21.2,3.2v5.1c0,0,0.1,0.6-0.1,0.8c-0.2,0.2-0.7,0.1-0.7,0.1s-0.9,0.1-1.5,0.2c-0.3,0.1-0.6,0.3-0.6,0.3"
						/>
				</g>
			</g>
			<g>
				<path class="st7" d="M25.2,3.9c0,0,0-0.5,0.2-0.7c0.2-0.2,0.7-0.1,0.7-0.1h2.8c0.2,0,0.3,0.2,0.5,0.2c0.3,0,0.3-0.2,0.5-0.2h3.3
					c0,0,0.4,0,0.5,0.1c0.2,0.3,0.2,0.6,0.2,0.6v0.6c0,0,1-0.1,1,0.4c0,0.5-1,0.5-1,0.5V8c0,0,1-0.1,1,0.5c0,0.6-1,0.5-1,0.5v0.5
					c0,0,0,0.4-0.1,0.6c-0.2,0.3-1,0.2-1,0.2H30h-1.4h-2.5c0,0-0.6,0.1-0.8-0.1c-0.2-0.2-0.2-0.6-0.2-0.6V9c0,0-1.1,0.1-1.1-0.5
					c0-0.6,1.1-0.5,1.1-0.5V5.4c0,0-1,0.1-1.1-0.5c0-0.6,1.1-0.5,1.1-0.5V3.9z"/>
				<line class="st5" x1="29.4" y1="3.3" x2="29.4" y2="9.7"/>
				<circle class="st7" cx="29.5" cy="10.2" r="0.5"/>
				<g>
					<g>
						<line class="st5" x1="26.5" y1="9" x2="26" y2="9.6"/>
						<path class="st5" d="M26.5,3.1v5.1c0,0,0,0.6,0.1,0.8c0.2,0.3,0.7,0.1,0.7,0.1s0.9,0.1,1.5,0.2c0.3,0,0.6,0.3,0.6,0.3"/>
					</g>
					<path class="st5" d="M26.5,3.1c0,0-0.7,0.4-0.7,0.9c0,0.5,0,0.8,0,0.8V9c0,0,0,0.4,0.1,0.6c0.2,0.2,0.8,0.2,0.8,0.2
						s0.8-0.1,1.4,0c0.6,0.1,0.5,0.2,0.8,0.3"/>
				</g>
				<g>
					<path class="st5" d="M32.4,3.2c0,0,0.7,0.4,0.7,0.9c0,0.5,0,0.8,0,0.8V9c0,0,0,0.5-0.1,0.6c-0.2,0.2-0.8,0.2-0.8,0.2
						s-0.8-0.1-1.4,0c-0.6,0.1-0.5,0.2-0.8,0.3"/>
					<path class="st5" d="M32.4,3.2v5.1c0,0,0.1,0.6-0.1,0.8c-0.2,0.2-0.7,0.1-0.7,0.1s-0.9,0.1-1.5,0.2c-0.3,0.1-0.6,0.3-0.6,0.3"
						/>
				</g>
			</g>
		</g>
		<path class="st0" d="M6.7,4.7L6.7,4.7C6.5,5,6.5,4.8,6.1,5.9C5.8,7,5.8,7.2,5.7,7.2c-0.2,0-0.2-0.7-0.5-1.4
			c-0.4-1.1-0.5-1-0.5-1.1c0,0,0,0,0-0.1h0.9c0,0.1,0,0.1,0,0.1c0,0.1-0.1,0.2-0.1,0.4c0,0,0.2,0.8,0.4,0.8c0.1,0,0.4-0.9,0.4-0.9
			C6.2,5,6.1,4.9,6,4.8V4.7C6.3,4.7,6.4,4.7,6.7,4.7z"/>
		<path class="st0" d="M8.5,4.6h0.3c0,0.1,0.1,0.2,0.1,0.3v0.2c-0.1,0-0.1,0-0.1,0c-0.2,0-0.2-0.3-0.4-0.3H8.2C8.1,5.1,8,5.2,8,5.3
			v0.2c0,0.2,0.2,0.2,0.2,0.2c0.3,0,0.3-0.3,0.5-0.3c0.1,0,0.1,0.2,0.1,0.4c0,0.1,0,0.3-0.1,0.3c-0.1,0-0.2-0.3-0.5-0.3
			C8.2,5.9,8.1,6,8.1,6.1v0.6C8.1,6.9,8.2,7,8.4,7C8.7,7,8.9,6.8,9,6.6h0.1c0,0.1,0.1,0.2,0.1,0.3v0.2C9.1,7.2,8.9,7.2,8.9,7.2
			c0,0-0.5,0-1.4,0c0,0-0.1-0.1-0.1-0.1C7.3,6.9,7.6,6.9,7.6,6.7V5.3c0-0.5-0.2-0.4-0.2-0.5c0,0,0,0,0-0.1c0.4,0,0.6,0,0.9,0
			C8.4,4.7,8.5,4.6,8.5,4.6z"/>
		<path class="st0" d="M18.9,4.6c0.2,0,1,0,1.1,0l0,0.2c-0.1,0-0.3,0.2-0.3,0.4v1.6C19.7,7.1,20,7,20,7.2c0,0,0,0.1,0,0.2h-1.1
			c0-0.1,0-0.2,0-0.2c0-0.2,0.3,0,0.3-0.4V5.2c0-0.2-0.2-0.3-0.3-0.4C18.9,4.8,18.9,4.7,18.9,4.6z"/>
		<path class="st0" d="M31.7,4.6c0.1,0,0.2,0.1,0.2,0.4c0,0.1-0.1,0.1,0,0.2h-0.1c-0.2-0.2-0.2-0.2-0.3-0.3h-0.3C31,5.1,31,5,31,5.2
			c0,0.4,1.1,0.6,1.1,1.4c0,0.3-0.3,0.7-0.5,0.7c-0.1,0-0.3,0-0.7,0c-0.1-0.3,0-0.6,0-0.8c0-0.1,0-0.1,0.1-0.1
			c0.1,0,0.1,0.7,0.6,0.7c0.1,0,0.3-0.1,0.3-0.3c0-0.6-1.1-0.6-1.1-1.5c0-0.4,0.3-0.6,0.4-0.6h0.3C31.5,4.7,31.6,4.6,31.7,4.6z"/>
		<path class="st0" d="M18.1,7L18.1,7c-0.1,0-0.7-0.6-0.7-0.8c0-0.1,0.6-0.3,0.6-1c0-0.6-0.5-0.7-0.5-0.7c0,0-1.3,0-1.6,0
			c0,0,0,0.1,0,0.2c0,0,0.4,0.2,0.3,0.5v1.5c0,0.1-0.2,0.3-0.2,0.4c0,0,0,0.2,0,0.2c0.5,0,0.5,0,0.9,0c0-0.1,0-0.2,0-0.2
			c0-0.1-0.1-0.2-0.2-0.4c0-0.1,0-0.2,0-0.4h0.1c0.3,0.6,0.8,0.9,0.8,0.9h0.4C18.1,7.5,18.1,7,18.1,7z"/>
		<path class="st0" d="M30.3,7.1c0,0.1,0.2,0.2,0.3,0.2v0.1h-0.9c0-0.1-0.1-0.1-0.1-0.1c0,0,0-0.1,0.2-0.3c0,0-0.2-0.2-0.3-0.4
			c-0.1,0-0.1,0-0.3,0c-0.1,0.1-0.1,0.1-0.2,0.3C28.9,7,29,7,29.2,7.2c0,0,0,0.1-0.1,0.2c-0.3,0-0.7,0-0.8,0c-0.5,0-1,0-1,0V7.3
			c0-0.2,0.3-0.1,0.3-0.5V5.4c0-0.2,0-0.6-0.1-0.6c0,0-0.2,0.1-0.4,0.4h-0.1c0-0.1,0-0.1,0-0.2c0,0,0-0.6,0.2-0.6
			c0,0,0.3,0.1,0.5,0.1h0.6c0.1,0,0.2-0.1,0.3-0.1c0.1,0,0.1,0.1,0.1,0.2c0,0-0.1,0.6-0.2,0.6c-0.1,0-0.1-0.2-0.3-0.4h-0.2
			c-0.1,1.1,0,1.6,0,1.7c0,0.1,0,0.2,0,0.4c0,0.1,0.1,0.3,0.2,0.3c0.4,0,0.5-0.9,0.6-1.3c0,0,0.4-1.3,0.5-1.6L30.3,7.1z"/>
		<path class="st1" d="M16.9,4.9h0.3c0,0,0.3,0.2,0.3,0.6c0,0,0,0.1,0,0.1c-0.1,0.2-0.2,0.3-0.3,0.3h-0.3c0-0.1-0.1-0.1-0.1-0.2
			c0-0.3,0-0.3,0-0.4C16.8,5,16.8,5.1,16.9,4.9z"/>
		<path class="st1" d="M29.3,5.6c0,0,0.2,0.3,0.2,0.5c0,0.1,0,0.1,0,0.1h-0.3c0-0.2,0-0.1,0-0.1c0-0.3,0.1-0.4,0.1-0.5H29.3z"/>
	</g>
</g>
</svg>
